<svg width="176" height="32" viewBox="0 0 176 32" fill="none" xmlns="http://www.w3.org/2000/svg">
<path fill-rule="evenodd" clip-rule="evenodd" d="M0 31.7793H32.231C34.296 31.7793 36.14 30.0873 36.361 28.0276L39.607 0H7.37601C5.31 0 3.46701 1.6919 3.245 3.7517L0 31.7793ZM19.84 26.1885H29.502L30.24 20.8184C30.608 18.1701 28.691 16.0368 26.036 16.0368C23.38 16.0368 20.947 18.1701 20.578 20.8184L19.84 26.1885ZM14.456 15.9632C15.857 15.9632 17.037 17.1402 17.037 18.5379C17.037 19.7149 16.226 20.6712 15.12 20.9655C15.046 21.0391 14.972 21.0391 14.972 21.1126C14.972 21.1862 15.046 21.1862 15.12 21.2597C16.079 21.6276 16.816 22.5839 16.816 23.6873C16.816 24.9379 15.857 26.0414 14.604 26.1885H6.564L7.67099 16.0368H14.456V15.9632ZM26.626 4.4138C29.945 4.1931 32.674 6.2528 32.674 9.0483C32.674 11.8437 29.945 14.3448 26.626 14.5655C23.307 14.7862 20.578 12.7264 20.578 9.931C20.578 7.062 23.307 4.6345 26.626 4.4138ZM13.128 4.4873C16.447 4.2666 19.176 6.3264 19.176 9.1218C19.176 11.9172 16.447 14.4184 13.128 14.6391C9.80899 14.8597 7.08099 12.8 7.08099 10.0046C7.08099 7.2092 9.80899 4.708 13.128 4.4873Z" fill="url(#paint0_linear)"/>
<path d="M56.7283 24.6896C55.6283 24.6896 54.62 24.498 53.7033 24.1147C52.8033 23.7147 52.0283 23.148 51.3783 22.4146C50.7283 21.6813 50.2199 20.7896 49.8533 19.7397C49.5033 18.6897 49.3283 17.498 49.3283 16.1646C49.3283 14.8313 49.5033 13.648 49.8533 12.6146C50.2199 11.5646 50.7283 10.6896 51.3783 9.98965C52.0283 9.27298 52.8033 8.73132 53.7033 8.36465C54.62 7.98132 55.6283 7.78965 56.7283 7.78965C57.8283 7.78965 58.8283 7.98132 59.7283 8.36465C60.645 8.73132 61.4283 9.27298 62.0783 9.98965C62.7283 10.7063 63.2283 11.5896 63.5783 12.6396C63.945 13.673 64.1283 14.848 64.1283 16.1646C64.1283 17.498 63.945 18.6897 63.5783 19.7397C63.2283 20.7896 62.7283 21.6813 62.0783 22.4146C61.4283 23.148 60.645 23.7147 59.7283 24.1147C58.8283 24.498 57.8283 24.6896 56.7283 24.6896ZM56.7283 21.5147C57.8449 21.5147 58.7283 21.0397 59.3783 20.0897C60.0283 19.123 60.3533 17.8146 60.3533 16.1646C60.3533 14.5313 60.0283 13.2563 59.3783 12.3397C58.7283 11.423 57.8449 10.9647 56.7283 10.9647C55.6116 10.9647 54.7283 11.423 54.0783 12.3397C53.4283 13.2563 53.1033 14.5313 53.1033 16.1646C53.1033 17.8146 53.4283 19.123 54.0783 20.0897C54.7283 21.0397 55.6116 21.5147 56.7283 21.5147Z" fill="url(#paint1_linear)"/>
<path d="M73.8181 24.6896C72.7181 24.6896 71.7098 24.498 70.7931 24.1147C69.8931 23.7147 69.1181 23.148 68.4681 22.4146C67.8181 21.6813 67.3098 20.7896 66.9431 19.7397C66.5931 18.6897 66.4181 17.498 66.4181 16.1646C66.4181 14.8313 66.5931 13.648 66.9431 12.6146C67.3098 11.5646 67.8181 10.6896 68.4681 9.98965C69.1181 9.27298 69.8931 8.73132 70.7931 8.36465C71.7098 7.98132 72.7181 7.78965 73.8181 7.78965C74.9181 7.78965 75.9181 7.98132 76.8181 8.36465C77.7348 8.73132 78.5181 9.27298 79.1681 9.98965C79.8181 10.7063 80.3181 11.5896 80.6681 12.6396C81.0348 13.673 81.2181 14.848 81.2181 16.1646C81.2181 17.498 81.0348 18.6897 80.6681 19.7397C80.3181 20.7896 79.8181 21.6813 79.1681 22.4146C78.5181 23.148 77.7348 23.7147 76.8181 24.1147C75.9181 24.498 74.9181 24.6896 73.8181 24.6896ZM73.8181 21.5147C74.9348 21.5147 75.8181 21.0397 76.4681 20.0897C77.1181 19.123 77.4431 17.8146 77.4431 16.1646C77.4431 14.5313 77.1181 13.2563 76.4681 12.3397C75.8181 11.423 74.9348 10.9647 73.8181 10.9647C72.7015 10.9647 71.8181 11.423 71.1681 12.3397C70.5181 13.2563 70.1931 14.5313 70.1931 16.1646C70.1931 17.8146 70.5181 19.123 71.1681 20.0897C71.8181 21.0397 72.7015 21.5147 73.8181 21.5147Z" fill="url(#paint2_linear)"/>
<path d="M84.283 24.3897V8.08965H89.858C90.708 8.08965 91.4913 8.15632 92.208 8.28965C92.9413 8.40632 93.5746 8.62298 94.108 8.93965C94.658 9.25632 95.083 9.67298 95.383 10.1896C95.6996 10.7063 95.858 11.3563 95.858 12.1397C95.858 12.5063 95.808 12.873 95.708 13.2396C95.608 13.6063 95.4663 13.948 95.283 14.2646C95.0996 14.5813 94.8746 14.8646 94.608 15.1146C94.358 15.3646 94.0663 15.548 93.733 15.6646V15.7646C94.1496 15.8646 94.533 16.023 94.883 16.2397C95.233 16.4397 95.5413 16.698 95.808 17.0147C96.0746 17.3313 96.283 17.7063 96.433 18.1397C96.583 18.5563 96.658 19.0397 96.658 19.5897C96.658 20.423 96.4913 21.1397 96.158 21.7397C95.8413 22.3397 95.3913 22.8397 94.808 23.2397C94.2413 23.623 93.5746 23.9146 92.808 24.1147C92.0413 24.298 91.2163 24.3897 90.333 24.3897H84.283ZM87.958 14.6146H89.683C90.583 14.6146 91.233 14.4396 91.633 14.0896C92.0496 13.7396 92.258 13.273 92.258 12.6896C92.258 12.0563 92.0496 11.6063 91.633 11.3397C91.2163 11.073 90.5746 10.9396 89.708 10.9396H87.958V14.6146ZM87.958 21.5396H90.033C92.0496 21.5396 93.058 20.8063 93.058 19.3397C93.058 18.623 92.808 18.1146 92.308 17.8146C91.808 17.498 91.0496 17.3397 90.033 17.3397H87.958V21.5396Z" fill="url(#paint3_linear)"/>
<path d="M103.245 16.1397L102.845 17.6397H106.32L105.945 16.1397C105.711 15.323 105.486 14.4563 105.27 13.5396C105.053 12.623 104.836 11.7396 104.62 10.8896H104.52C104.32 11.7563 104.111 12.648 103.895 13.5646C103.695 14.4647 103.478 15.323 103.245 16.1397ZM97.3447 24.3897L102.445 8.08965H106.87L111.97 24.3897H108.07L107.07 20.5147H102.095L101.095 24.3897H97.3447Z" fill="url(#paint4_linear)"/>
<path d="M118.756 24.3897V8.08965H124.331C125.181 8.08965 125.964 8.15632 126.681 8.28965C127.414 8.40632 128.047 8.62298 128.581 8.93965C129.131 9.25632 129.556 9.67298 129.856 10.1896C130.172 10.7063 130.331 11.3563 130.331 12.1397C130.331 12.5063 130.281 12.873 130.181 13.2396C130.081 13.6063 129.939 13.948 129.756 14.2646C129.572 14.5813 129.347 14.8646 129.081 15.1146C128.831 15.3646 128.539 15.548 128.206 15.6646V15.7646C128.622 15.8646 129.006 16.023 129.356 16.2397C129.706 16.4397 130.014 16.698 130.281 17.0147C130.547 17.3313 130.756 17.7063 130.906 18.1397C131.056 18.5563 131.131 19.0397 131.131 19.5897C131.131 20.423 130.964 21.1397 130.631 21.7397C130.314 22.3397 129.864 22.8397 129.281 23.2397C128.714 23.623 128.047 23.9146 127.281 24.1147C126.514 24.298 125.689 24.3897 124.806 24.3897H118.756ZM122.431 14.6146H124.156C125.056 14.6146 125.706 14.4396 126.106 14.0896C126.522 13.7396 126.731 13.273 126.731 12.6896C126.731 12.0563 126.522 11.6063 126.106 11.3397C125.689 11.073 125.047 10.9396 124.181 10.9396H122.431V14.6146ZM122.431 21.5396H124.506C126.522 21.5396 127.531 20.8063 127.531 19.3397C127.531 18.623 127.281 18.1146 126.781 17.8146C126.281 17.498 125.522 17.3397 124.506 17.3397H122.431V21.5396Z" fill="url(#paint5_linear)"/>
<path d="M133.892 24.3897V8.08965H137.567V21.2896H144.017V24.3897H133.892Z" fill="url(#paint6_linear)"/>
<path d="M152.553 24.6896C151.453 24.6896 150.445 24.498 149.528 24.1147C148.628 23.7147 147.853 23.148 147.203 22.4146C146.553 21.6813 146.045 20.7896 145.678 19.7397C145.328 18.6897 145.153 17.498 145.153 16.1646C145.153 14.8313 145.328 13.648 145.678 12.6146C146.045 11.5646 146.553 10.6896 147.203 9.98965C147.853 9.27298 148.628 8.73132 149.528 8.36465C150.445 7.98132 151.453 7.78965 152.553 7.78965C153.653 7.78965 154.653 7.98132 155.553 8.36465C156.47 8.73132 157.253 9.27298 157.903 9.98965C158.553 10.7063 159.053 11.5896 159.403 12.6396C159.77 13.673 159.953 14.848 159.953 16.1646C159.953 17.498 159.77 18.6897 159.403 19.7397C159.053 20.7896 158.553 21.6813 157.903 22.4146C157.253 23.148 156.47 23.7147 155.553 24.1147C154.653 24.498 153.653 24.6896 152.553 24.6896ZM152.553 21.5147C153.67 21.5147 154.553 21.0397 155.203 20.0897C155.853 19.123 156.178 17.8146 156.178 16.1646C156.178 14.5313 155.853 13.2563 155.203 12.3397C154.553 11.423 153.67 10.9647 152.553 10.9647C151.437 10.9647 150.553 11.423 149.903 12.3397C149.253 13.2563 148.928 14.5313 148.928 16.1646C148.928 17.8146 149.253 19.123 149.903 20.0897C150.553 21.0397 151.437 21.5147 152.553 21.5147Z" fill="url(#paint7_linear)"/>
<path d="M170.218 24.6896C169.102 24.6896 168.052 24.5147 167.068 24.1646C166.102 23.798 165.26 23.2647 164.543 22.5646C163.827 21.8646 163.26 20.998 162.843 19.9647C162.443 18.9146 162.243 17.7063 162.243 16.3396C162.243 14.9896 162.452 13.7896 162.868 12.7396C163.285 11.673 163.852 10.773 164.568 10.0396C165.302 9.30632 166.152 8.74798 167.118 8.36465C168.085 7.98132 169.11 7.78965 170.193 7.78965C171.377 7.78965 172.393 8.00632 173.243 8.43965C174.093 8.87298 174.785 9.36465 175.318 9.91465L173.393 12.2647C172.977 11.898 172.535 11.5897 172.068 11.3397C171.602 11.0897 171.018 10.9647 170.318 10.9647C169.685 10.9647 169.102 11.0897 168.568 11.3397C168.052 11.573 167.602 11.9146 167.218 12.3646C166.835 12.8146 166.535 13.3646 166.318 14.0146C166.118 14.6646 166.018 15.398 166.018 16.2146C166.018 17.898 166.393 19.2063 167.143 20.1397C167.91 21.0563 169.06 21.5147 170.593 21.5147C170.927 21.5147 171.252 21.473 171.568 21.3897C171.885 21.3063 172.143 21.1813 172.343 21.0147V18.2146H169.643V15.2147H175.593V22.7147C175.027 23.2647 174.277 23.7313 173.343 24.1147C172.41 24.498 171.368 24.6896 170.218 24.6896Z" fill="url(#paint8_linear)"/>
<defs>
<linearGradient id="paint0_linear" x1="4.50689" y1="-3.17484" x2="53.6011" y2="105.377" gradientUnits="userSpaceOnUse">
<stop stop-color="#FF3C6A"/>
<stop offset="0.0001" stop-color="#FF3C6A"/>
<stop offset="1" stop-color="#732C80"/>
</linearGradient>
<linearGradient id="paint1_linear" x1="4.50689" y1="-3.17484" x2="53.6011" y2="105.377" gradientUnits="userSpaceOnUse">
<stop stop-color="#FF3C6A"/>
<stop offset="0.0001" stop-color="#FF3C6A"/>
<stop offset="1" stop-color="#732C80"/>
</linearGradient>
<linearGradient id="paint2_linear" x1="4.50689" y1="-3.17484" x2="53.6011" y2="105.377" gradientUnits="userSpaceOnUse">
<stop stop-color="#FF3C6A"/>
<stop offset="0.0001" stop-color="#FF3C6A"/>
<stop offset="1" stop-color="#732C80"/>
</linearGradient>
<linearGradient id="paint3_linear" x1="4.50689" y1="-3.17484" x2="53.6011" y2="105.377" gradientUnits="userSpaceOnUse">
<stop stop-color="#FF3C6A"/>
<stop offset="0.0001" stop-color="#FF3C6A"/>
<stop offset="1" stop-color="#732C80"/>
</linearGradient>
<linearGradient id="paint4_linear" x1="4.50689" y1="-3.17484" x2="53.6011" y2="105.377" gradientUnits="userSpaceOnUse">
<stop stop-color="#FF3C6A"/>
<stop offset="0.0001" stop-color="#FF3C6A"/>
<stop offset="1" stop-color="#732C80"/>
</linearGradient>
<linearGradient id="paint5_linear" x1="4.50689" y1="-3.17484" x2="53.6011" y2="105.377" gradientUnits="userSpaceOnUse">
<stop stop-color="#FF3C6A"/>
<stop offset="0.0001" stop-color="#FF3C6A"/>
<stop offset="1" stop-color="#732C80"/>
</linearGradient>
<linearGradient id="paint6_linear" x1="4.50689" y1="-3.17484" x2="53.6011" y2="105.377" gradientUnits="userSpaceOnUse">
<stop stop-color="#FF3C6A"/>
<stop offset="0.0001" stop-color="#FF3C6A"/>
<stop offset="1" stop-color="#732C80"/>
</linearGradient>
<linearGradient id="paint7_linear" x1="4.50689" y1="-3.17484" x2="53.6011" y2="105.377" gradientUnits="userSpaceOnUse">
<stop stop-color="#FF3C6A"/>
<stop offset="0.0001" stop-color="#FF3C6A"/>
<stop offset="1" stop-color="#732C80"/>
</linearGradient>
<linearGradient id="paint8_linear" x1="4.50689" y1="-3.17484" x2="53.6011" y2="105.377" gradientUnits="userSpaceOnUse">
<stop stop-color="#FF3C6A"/>
<stop offset="0.0001" stop-color="#FF3C6A"/>
<stop offset="1" stop-color="#732C80"/>
</linearGradient>
</defs>
</svg>
