<svg width="175" height="31" viewBox="0 0 175 31" fill="none" xmlns="http://www.w3.org/2000/svg">
<path fill-rule="evenodd" clip-rule="evenodd" d="M0 31H32.1221C34.1801 31 36.0179 29.3495 36.2381 27.3403L39.4732 0H7.35108C5.29206 0 3.4553 1.65041 3.23403 3.6597L0 31ZM19.773 25.5463H29.4023L30.1378 20.3079C30.5046 17.7245 28.5941 15.6435 25.948 15.6435C23.301 15.6435 20.8762 17.7245 20.5085 20.3079L19.773 25.5463ZM14.4071 15.5717C15.8034 15.5717 16.9794 16.7199 16.9794 18.0833C16.9794 19.2314 16.1712 20.1643 15.0689 20.4514C14.9952 20.5232 14.9214 20.5232 14.9214 20.5949C14.9214 20.6667 14.9952 20.6667 15.0689 20.7384C16.0247 21.0972 16.7592 22.0301 16.7592 23.1064C16.7592 24.3264 15.8034 25.4028 14.5547 25.5463H6.54182L7.64507 15.6435H14.4071V15.5717ZM26.536 4.30557C29.8438 4.09028 32.5636 6.09947 32.5636 8.82642C32.5636 11.5533 29.8438 13.993 26.536 14.2083C23.2283 14.4236 20.5085 12.4143 20.5085 9.68747C20.5085 6.88882 23.2283 4.52085 26.536 4.30557ZM13.0836 4.37726C16.3914 4.16198 19.1112 6.17126 19.1112 8.89811C19.1112 11.625 16.3914 14.0648 13.0836 14.2801C9.77585 14.4953 7.05707 12.4861 7.05707 9.75927C7.05707 7.03241 9.77585 4.59255 13.0836 4.37726Z" fill="#FF3C6A"/>
<path d="M56.5366 24.0842C55.4403 24.0842 54.4354 23.8972 53.5218 23.5233C52.6249 23.1331 51.8525 22.5803 51.2047 21.865C50.5569 21.1496 50.0503 20.2798 49.6848 19.2556C49.336 18.2313 49.1616 17.0689 49.1616 15.7683C49.1616 14.4676 49.336 13.3133 49.6848 12.3053C50.0503 11.2811 50.5569 10.4275 51.2047 9.74468C51.8525 9.04559 52.6249 8.51721 53.5218 8.15953C54.4354 7.7856 55.4403 7.59863 56.5366 7.59863C57.6329 7.59863 58.6295 7.7856 59.5265 8.15953C60.44 8.51721 61.2207 9.04559 61.8685 9.74468C62.5163 10.4438 63.0146 11.3054 63.3635 12.3297C63.7289 13.3377 63.9116 14.4839 63.9116 15.7683C63.9116 17.0689 63.7289 18.2313 63.3635 19.2556C63.0146 20.2798 62.5163 21.1496 61.8685 21.865C61.2207 22.5803 60.44 23.1331 59.5265 23.5233C58.6295 23.8972 57.6329 24.0842 56.5366 24.0842ZM56.5366 20.9871C57.6495 20.9871 58.5298 20.5237 59.1776 19.597C59.8254 18.654 60.1493 17.3778 60.1493 15.7683C60.1493 14.175 59.8254 12.9312 59.1776 12.0371C58.5298 11.1429 57.6495 10.6958 56.5366 10.6958C55.4237 10.6958 54.5434 11.1429 53.8956 12.0371C53.2478 12.9312 52.9238 14.175 52.9238 15.7683C52.9238 17.3778 53.2478 18.654 53.8956 19.597C54.5434 20.5237 55.4237 20.9871 56.5366 20.9871Z" fill="#FF3C6A"/>
<path d="M73.5687 24.0842C72.4724 24.0842 71.4675 23.8972 70.5539 23.5233C69.657 23.1331 68.8846 22.5803 68.2368 21.865C67.589 21.1496 67.0824 20.2798 66.7169 19.2556C66.3681 18.2313 66.1937 17.0689 66.1937 15.7683C66.1937 14.4676 66.3681 13.3133 66.7169 12.3053C67.0824 11.2811 67.589 10.4275 68.2368 9.74468C68.8846 9.04559 69.657 8.51721 70.5539 8.15953C71.4675 7.7856 72.4724 7.59863 73.5687 7.59863C74.665 7.59863 75.6616 7.7856 76.5586 8.15953C77.4721 8.51721 78.2528 9.04559 78.9006 9.74468C79.5484 10.4438 80.0467 11.3054 80.3956 12.3297C80.761 13.3377 80.9437 14.4839 80.9437 15.7683C80.9437 17.0689 80.761 18.2313 80.3956 19.2556C80.0467 20.2798 79.5484 21.1496 78.9006 21.865C78.2528 22.5803 77.4721 23.1331 76.5586 23.5233C75.6616 23.8972 74.665 24.0842 73.5687 24.0842ZM73.5687 20.9871C74.6816 20.9871 75.5619 20.5237 76.2097 19.597C76.8575 18.654 77.1814 17.3778 77.1814 15.7683C77.1814 14.175 76.8575 12.9312 76.2097 12.0371C75.5619 11.1429 74.6816 10.6958 73.5687 10.6958C72.4558 10.6958 71.5755 11.1429 70.9277 12.0371C70.2798 12.9312 69.9559 14.175 69.9559 15.7683C69.9559 17.3778 70.2798 18.654 70.9277 19.597C71.5755 20.5237 72.4558 20.9871 73.5687 20.9871Z" fill="#FF3C6A"/>
<path d="M83.9982 23.7916V7.89127H89.5543C90.4015 7.89127 91.1822 7.95631 91.8964 8.08637C92.6273 8.20017 93.2585 8.41153 93.79 8.72043C94.3381 9.02933 94.7617 9.43578 95.0607 9.93978C95.3763 10.4438 95.5341 11.0778 95.5341 11.842C95.5341 12.1996 95.4842 12.5573 95.3846 12.915C95.2849 13.2727 95.1437 13.6059 94.961 13.9148C94.7783 14.2237 94.5541 14.5001 94.2883 14.744C94.0391 14.9879 93.7485 15.1667 93.4162 15.2805V15.3781C93.8315 15.4756 94.2135 15.6301 94.5624 15.8414C94.9112 16.0365 95.2185 16.2885 95.4842 16.5974C95.75 16.9063 95.9576 17.2721 96.1071 17.6948C96.2566 18.1013 96.3314 18.5728 96.3314 19.1093C96.3314 19.9222 96.1653 20.6213 95.8331 21.2065C95.5175 21.7918 95.069 22.2796 94.4876 22.6698C93.9229 23.0437 93.2584 23.3282 92.4944 23.5233C91.7303 23.7021 90.9081 23.7916 90.0277 23.7916H83.9982ZM87.6608 14.2563H89.3799C90.2769 14.2563 90.9247 14.0856 91.3233 13.7441C91.7386 13.4027 91.9462 12.9475 91.9462 12.3785C91.9462 11.7607 91.7386 11.3217 91.3233 11.0616C90.9081 10.8014 90.2686 10.6714 89.4048 10.6714H87.6608V14.2563ZM87.6608 21.0115H89.7288C91.7386 21.0115 92.7435 20.2961 92.7435 18.8654C92.7435 18.1663 92.4944 17.6704 91.9961 17.3778C91.4978 17.0689 90.742 16.9144 89.7288 16.9144H87.6608V21.0115Z" fill="#FF3C6A"/>
<path d="M102.896 15.7439L102.497 17.2071H105.96L105.587 15.7439C105.354 14.9472 105.13 14.1018 104.914 13.2076C104.698 12.3134 104.482 11.4518 104.266 10.6226H104.167C103.967 11.468 103.76 12.3378 103.544 13.232C103.344 14.1099 103.128 14.9472 102.896 15.7439ZM97.0158 23.7916L102.099 7.89127H106.509L111.591 23.7916H107.705L106.708 20.0116H101.75L100.753 23.7916H97.0158Z" fill="#FF3C6A"/>
<path d="M118.354 23.7916V7.89127H123.911C124.758 7.89127 125.538 7.95631 126.253 8.08637C126.983 8.20017 127.615 8.41153 128.146 8.72043C128.694 9.02933 129.118 9.43578 129.417 9.93978C129.732 10.4438 129.89 11.0778 129.89 11.842C129.89 12.1996 129.84 12.5573 129.741 12.915C129.641 13.2727 129.5 13.6059 129.317 13.9148C129.134 14.2237 128.91 14.5001 128.644 14.744C128.395 14.9879 128.105 15.1667 127.772 15.2805V15.3781C128.188 15.4756 128.57 15.6301 128.919 15.8414C129.267 16.0365 129.575 16.2885 129.84 16.5974C130.106 16.9063 130.314 17.2721 130.463 17.6948C130.613 18.1013 130.688 18.5728 130.688 19.1093C130.688 19.9222 130.521 20.6213 130.189 21.2065C129.874 21.7918 129.425 22.2796 128.844 22.6698C128.279 23.0437 127.615 23.3282 126.851 23.5233C126.086 23.7021 125.264 23.7916 124.384 23.7916H118.354ZM122.017 14.2563H123.736C124.633 14.2563 125.281 14.0856 125.68 13.7441C126.095 13.4027 126.302 12.9475 126.302 12.3785C126.302 11.7607 126.095 11.3217 125.68 11.0616C125.264 10.8014 124.625 10.6714 123.761 10.6714H122.017V14.2563ZM122.017 21.0115H124.085C126.095 21.0115 127.1 20.2961 127.1 18.8654C127.1 18.1663 126.851 17.6704 126.352 17.3778C125.854 17.0689 125.098 16.9144 124.085 16.9144H122.017V21.0115Z" fill="#FF3C6A"/>
<path d="M133.44 23.7916V7.89127H137.103V20.7676H143.531V23.7916H133.44Z" fill="#FF3C6A"/>
<path d="M152.038 24.0842C150.942 24.0842 149.937 23.8972 149.023 23.5233C148.126 23.1331 147.354 22.5803 146.706 21.865C146.058 21.1496 145.552 20.2798 145.186 19.2556C144.837 18.2313 144.663 17.0689 144.663 15.7683C144.663 14.4676 144.837 13.3133 145.186 12.3053C145.552 11.2811 146.058 10.4275 146.706 9.74468C147.354 9.04559 148.126 8.51721 149.023 8.15953C149.937 7.7856 150.942 7.59863 152.038 7.59863C153.134 7.59863 154.131 7.7856 155.028 8.15953C155.941 8.51721 156.722 9.04559 157.37 9.74468C158.018 10.4438 158.516 11.3054 158.865 12.3297C159.23 13.3377 159.413 14.4839 159.413 15.7683C159.413 17.0689 159.23 18.2313 158.865 19.2556C158.516 20.2798 158.018 21.1496 157.37 21.865C156.722 22.5803 155.941 23.1331 155.028 23.5233C154.131 23.8972 153.134 24.0842 152.038 24.0842ZM152.038 20.9871C153.151 20.9871 154.031 20.5237 154.679 19.597C155.327 18.654 155.651 17.3778 155.651 15.7683C155.651 14.175 155.327 12.9312 154.679 12.0371C154.031 11.1429 153.151 10.6958 152.038 10.6958C150.925 10.6958 150.045 11.1429 149.397 12.0371C148.749 12.9312 148.425 14.175 148.425 15.7683C148.425 17.3778 148.749 18.654 149.397 19.597C150.045 20.5237 150.925 20.9871 152.038 20.9871Z" fill="#FF3C6A"/>
<path d="M169.643 24.0842C168.53 24.0842 167.484 23.9135 166.504 23.5721C165.54 23.2144 164.702 22.6941 163.987 22.0113C163.273 21.3285 162.708 20.4831 162.293 19.4751C161.894 18.4508 161.695 17.2721 161.695 15.939C161.695 14.6221 161.903 13.4515 162.318 12.4272C162.733 11.3867 163.298 10.5088 164.012 9.79346C164.743 9.0781 165.59 8.53346 166.554 8.15953C167.517 7.7856 168.539 7.59863 169.618 7.59863C170.798 7.59863 171.811 7.80998 172.658 8.23269C173.505 8.6554 174.194 9.13501 174.726 9.67152L172.807 11.9639C172.392 11.6062 171.952 11.3054 171.487 11.0616C171.022 10.8177 170.44 10.6958 169.743 10.6958C169.112 10.6958 168.53 10.8177 167.999 11.0616C167.484 11.2892 167.035 11.6225 166.653 12.0614C166.271 12.5004 165.972 13.0369 165.756 13.671C165.557 14.305 165.457 15.0204 165.457 15.817C165.457 17.4591 165.831 18.7353 166.579 19.6458C167.343 20.54 168.489 20.9871 170.017 20.9871C170.349 20.9871 170.673 20.9464 170.989 20.8651C171.304 20.7838 171.562 20.6619 171.761 20.4993V17.768H169.07V14.8416H175V22.1576C174.435 22.6942 173.688 23.1494 172.758 23.5233C171.827 23.8972 170.789 24.0842 169.643 24.0842Z" fill="#FF3C6A"/>
</svg>
